static_grf.mot
version=1
nRows=30
nColumns 19
inDegrees=yes
endheader
time	1_ground_force_vx	1_ground_force_vy	1_ground_force_vz	1_ground_force_px	1_ground_force_py	1_ground_force_pz	1_ground_torque_x	1_ground_torque_y	1_ground_torque_z	2_ground_force_vx	2_ground_force_vy	2_ground_force_vz	2_ground_force_px	2_ground_force_py	2_ground_force_pz	2_ground_torque_x	2_ground_torque_y	2_ground_torque_z
            0.902500	          -11.748428	          464.554227	          -42.781407	           -0.264966	            0.005990	           -0.352418	           -0.052560	            2.078307	           -0.191394	           10.522769	          451.605360	           44.874316	           -0.322551	            0.005444	           -0.732674	           -0.006573	           -0.282112	           -0.028032
            0.903000	          -11.519067	          464.373840	          -42.736889	           -0.264709	            0.005991	           -0.352451	           -0.052236	            2.105806	           -0.193800	           10.521542	          451.972804	           45.110271	           -0.322641	            0.005444	           -0.732715	           -0.006919	           -0.297239	           -0.029667
            0.903500	          -11.518626	          463.832422	          -42.601644	           -0.264822	            0.005990	           -0.352392	           -0.053018	            2.134916	           -0.196086	           10.525427	          450.868736	           44.871688	           -0.322941	            0.005442	           -0.732469	           -0.007479	           -0.320361	           -0.031883
            0.904000	          -11.564568	          464.373241	          -42.599212	           -0.264673	            0.005991	           -0.352480	           -0.052635	            2.113546	           -0.193886	           10.382342	          451.603848	           45.155945	           -0.323122	            0.005443	           -0.732843	           -0.007920	           -0.344495	           -0.034446
            0.904500	          -11.747793	          464.192713	          -42.553670	           -0.264828	            0.005990	           -0.352433	           -0.052955	            2.092430	           -0.191818	           10.246363	          450.314964	           44.963693	           -0.323058	            0.005442	           -0.732510	           -0.006725	           -0.295546	           -0.029510
            0.905000	          -11.656611	          463.833182	          -42.784727	           -0.264919	            0.005992	           -0.352692	           -0.053019	            2.109719	           -0.194604	           10.620518	          450.500291	           45.011118	           -0.322968	            0.005441	           -0.732347	           -0.008139	           -0.345258	           -0.034496
            0.905500	          -11.702552	          464.374001	          -42.782294	           -0.264893	            0.005991	           -0.352536	           -0.052371	            2.078141	           -0.191457	           10.386933	          450.315304	           45.010561	           -0.323014	            0.005441	           -0.732344	           -0.007027	           -0.304652	           -0.030451
            0.906000	          -11.931522	          463.652697	          -42.738957	           -0.264840	            0.005991	           -0.352606	           -0.053734	            2.088087	           -0.192477	           10.712889	          450.868910	           45.012393	           -0.322891	            0.005442	           -0.732430	           -0.008549	           -0.359819	           -0.035922
            0.906500	          -11.380675	          464.011959	          -42.417789	           -0.264804	            0.005991	           -0.352577	           -0.051798	            2.111904	           -0.193060	           10.569119	          451.788330	           45.250378	           -0.322585	            0.005444	           -0.732677	           -0.007979	           -0.341053	           -0.034159
            0.907000	          -11.472556	          463.832038	          -42.510046	           -0.264985	            0.005991	           -0.352462	           -0.052318	            2.115204	           -0.193858	           10.526818	          450.499952	           45.011158	           -0.322970	            0.005442	           -0.732471	           -0.007813	           -0.334364	           -0.033408
            0.907500	          -11.472768	          464.373062	          -42.553580	           -0.264902	            0.005990	           -0.352395	           -0.052907	            2.141471	           -0.196237	           10.852774	          451.053558	           45.012990	           -0.323017	            0.005442	           -0.732556	           -0.009094	           -0.377951	           -0.037718
            0.908000	          -11.655960	          464.012299	          -42.508818	           -0.264948	            0.005991	           -0.352548	           -0.053315	            2.122416	           -0.194438	           10.243704	          451.051527	           44.966321	           -0.322951	            0.005443	           -0.732717	           -0.006766	           -0.297914	           -0.029700
            0.908500	          -11.426647	          463.471515	          -42.511706	           -0.264642	            0.005991	           -0.352498	           -0.051874	            2.104021	           -0.192990	           10.475981	          451.604688	           45.015121	           -0.322717	            0.005443	           -0.732632	           -0.006688	           -0.288318	           -0.028739
            0.909000	          -11.472801	          464.553297	          -42.552807	           -0.264925	            0.005991	           -0.352601	           -0.053540	            2.167909	           -0.198579	           10.623197	          449.763499	           45.055418	           -0.323195	            0.005441	           -0.732349	           -0.008711	           -0.368796	           -0.036944
            0.909500	          -11.793702	          464.553235	          -42.552010	           -0.264808	            0.005990	           -0.352317	           -0.053020	            2.088453	           -0.191297	           10.381575	          451.788825	           44.921961	           -0.322757	            0.005443	           -0.732675	           -0.007327	           -0.318851	           -0.031704
            0.910000	          -11.427381	          464.373857	          -42.737117	           -0.264936	            0.005991	           -0.352533	           -0.052723	            2.142482	           -0.197176	           10.379561	          452.341415	           44.877004	           -0.322658	            0.005443	           -0.732546	           -0.006072	           -0.264624	           -0.026254
            0.910500	          -11.610932	          464.734550	          -42.780976	           -0.264893	            0.005990	           -0.352340	           -0.052893	            2.117058	           -0.194885	           10.475960	          451.604856	           44.968192	           -0.322758	            0.005444	           -0.732799	           -0.006803	           -0.293277	           -0.029203
            0.911000	          -11.701510	          463.651365	          -42.418539	           -0.264938	            0.005991	           -0.352575	           -0.053360	            2.114303	           -0.193433	           10.435174	          449.946690	           45.150011	           -0.323371	            0.005440	           -0.732264	           -0.008075	           -0.348163	           -0.034937
            0.911500	          -11.609923	          464.192150	          -42.416447	           -0.264850	            0.005991	           -0.352502	           -0.053259	            2.129410	           -0.194579	           10.338172	          450.866888	           45.200264	           -0.323027	            0.005441	           -0.732385	           -0.007053	           -0.307584	           -0.030836
            0.912000	          -11.610522	          463.111932	          -42.742073	           -0.264996	            0.005992	           -0.352801	           -0.053950	            2.151920	           -0.198608	           10.618545	          451.052545	           45.060018	           -0.322822	            0.005442	           -0.732427	           -0.007388	           -0.313831	           -0.031352
            0.912500	          -11.427054	          463.832637	          -42.647724	           -0.265018	            0.005991	           -0.352597	           -0.052328	            2.124014	           -0.195295	           10.291219	          450.867555	           44.965644	           -0.322901	            0.005442	           -0.732469	           -0.007142	           -0.312890	           -0.031205
            0.913000	          -11.335839	          463.292871	          -42.879554	           -0.264829	            0.005991	           -0.352491	           -0.053320	            2.179195	           -0.201693	           10.569721	          451.604692	           45.108937	           -0.322705	            0.005443	           -0.732594	           -0.008051	           -0.344009	           -0.034362
            0.913500	          -11.793148	          464.011682	          -42.370905	           -0.264842	            0.005992	           -0.352699	           -0.053796	            2.116658	           -0.193281	           10.708880	          451.973983	           44.969407	           -0.322795	            0.005443	           -0.732553	           -0.008514	           -0.359344	           -0.035753
            0.914000	          -11.473158	          464.013317	          -42.738549	           -0.264768	            0.005991	           -0.352487	           -0.052234	            2.112520	           -0.194576	           10.386289	          450.499277	           45.058146	           -0.322885	            0.005441	           -0.732263	           -0.007887	           -0.342092	           -0.034215
            0.914500	          -11.518429	          462.750828	          -42.606282	           -0.264947	            0.005991	           -0.352657	           -0.051823	            2.081974	           -0.191691	           10.805239	          451.237697	           44.966739	           -0.322946	            0.005443	           -0.732720	           -0.008259	           -0.344917	           -0.034372
            0.915000	          -11.334862	          462.930767	          -42.514252	           -0.264943	            0.005992	           -0.352694	           -0.052915	            2.161129	           -0.198472	           10.617880	          451.236686	           45.060675	           -0.322862	            0.005443	           -0.732553	           -0.008057	           -0.342398	           -0.034192
            0.915500	          -11.656057	          463.291629	          -42.603622	           -0.265079	            0.005991	           -0.352627	           -0.053131	            2.111777	           -0.194196	           10.338069	          450.867724	           44.965624	           -0.322993	            0.005442	           -0.732591	           -0.006257	           -0.272904	           -0.027217
            0.916000	          -11.563915	          463.290861	          -42.420426	           -0.265147	            0.005992	           -0.352813	           -0.053504	            2.143538	           -0.196269	           10.431851	          450.867393	           45.153296	           -0.322985	            0.005442	           -0.732552	           -0.007149	           -0.308972	           -0.030943
            0.916500	          -11.655685	          464.372240	          -42.369701	           -0.264841	            0.005991	           -0.352461	           -0.053534	            2.132850	           -0.194603	           10.521522	          451.972972	           45.063343	           -0.323004	            0.005442	           -0.732677	           -0.008298	           -0.356472	           -0.035542
            0.917000	          -11.472801	          464.553297	          -42.552807	           -0.264810	            0.005991	           -0.352519	           -0.052751	            2.135978	           -0.195654	           10.382198	          451.605019	           44.827448	           -0.322764	            0.005443	           -0.732631	           -0.006068	           -0.263939	           -0.026199
